<svg width="1159" height="846" viewBox="0 0 1159 846" fill="none" xmlns="http://www.w3.org/2000/svg">
<line x1="22.5413" y1="0.543701" x2="22.5412" y2="845.457" stroke="#F4EFF6" stroke-opacity="0.04"/>
<line x1="51.9294" y1="0.543701" x2="51.9294" y2="845.457" stroke="#F4EFF6" stroke-opacity="0.04"/>
<line x1="81.3177" y1="0.543701" x2="81.3177" y2="845.457" stroke="#F4EFF6" stroke-opacity="0.04"/>
<line x1="110.706" y1="0.543701" x2="110.706" y2="845.457" stroke="#F4EFF6" stroke-opacity="0.04"/>
<line x1="140.094" y1="0.543701" x2="140.094" y2="845.457" stroke="#F4EFF6" stroke-opacity="0.04"/>
<line x1="169.483" y1="0.543701" x2="169.483" y2="845.457" stroke="#F4EFF6" stroke-opacity="0.04"/>
<line x1="198.871" y1="0.543701" x2="198.871" y2="845.457" stroke="#F4EFF6" stroke-opacity="0.04"/>
<line x1="228.259" y1="0.543701" x2="228.259" y2="845.457" stroke="#F4EFF6" stroke-opacity="0.04"/>
<line x1="257.647" y1="0.543701" x2="257.647" y2="845.457" stroke="#F4EFF6" stroke-opacity="0.04"/>
<line x1="287.036" y1="0.543701" x2="287.036" y2="845.457" stroke="#F4EFF6" stroke-opacity="0.04"/>
<line x1="316.424" y1="0.543701" x2="316.424" y2="845.457" stroke="#F4EFF6" stroke-opacity="0.04"/>
<line x1="345.812" y1="0.543701" x2="345.812" y2="845.457" stroke="#F4EFF6" stroke-opacity="0.04"/>
<line x1="375.2" y1="0.543701" x2="375.2" y2="845.457" stroke="#F4EFF6" stroke-opacity="0.04"/>
<line x1="404.589" y1="0.543701" x2="404.589" y2="845.457" stroke="#F4EFF6" stroke-opacity="0.04"/>
<line x1="433.977" y1="0.543701" x2="433.977" y2="845.457" stroke="#F4EFF6" stroke-opacity="0.04"/>
<line x1="463.365" y1="0.543701" x2="463.365" y2="845.457" stroke="#F4EFF6" stroke-opacity="0.04"/>
<line x1="492.754" y1="0.543701" x2="492.754" y2="845.457" stroke="#F4EFF6" stroke-opacity="0.04"/>
<line x1="522.142" y1="0.543701" x2="522.142" y2="845.457" stroke="#F4EFF6" stroke-opacity="0.04"/>
<line x1="551.53" y1="0.543701" x2="551.53" y2="845.457" stroke="#F4EFF6" stroke-opacity="0.04"/>
<line x1="580.918" y1="0.543701" x2="580.918" y2="845.457" stroke="#F4EFF6" stroke-opacity="0.04"/>
<line x1="610.307" y1="0.543701" x2="610.307" y2="845.457" stroke="#F4EFF6" stroke-opacity="0.04"/>
<line x1="639.695" y1="0.543701" x2="639.695" y2="845.457" stroke="#F4EFF6" stroke-opacity="0.04"/>
<line x1="669.083" y1="0.543701" x2="669.083" y2="845.457" stroke="#F4EFF6" stroke-opacity="0.04"/>
<line x1="698.471" y1="0.543701" x2="698.471" y2="845.457" stroke="#F4EFF6" stroke-opacity="0.04"/>
<line x1="727.86" y1="0.543701" x2="727.86" y2="845.457" stroke="#F4EFF6" stroke-opacity="0.04"/>
<line x1="757.248" y1="0.543701" x2="757.248" y2="845.457" stroke="#F4EFF6" stroke-opacity="0.04"/>
<line x1="786.636" y1="0.543701" x2="786.636" y2="845.457" stroke="#F4EFF6" stroke-opacity="0.04"/>
<line x1="816.024" y1="0.543701" x2="816.024" y2="845.457" stroke="#F4EFF6" stroke-opacity="0.04"/>
<line x1="845.413" y1="0.543701" x2="845.413" y2="845.457" stroke="#F4EFF6" stroke-opacity="0.04"/>
<line x1="874.801" y1="0.543701" x2="874.801" y2="845.457" stroke="#F4EFF6" stroke-opacity="0.04"/>
<line x1="904.189" y1="0.543701" x2="904.189" y2="845.457" stroke="#F4EFF6" stroke-opacity="0.04"/>
<line x1="933.578" y1="0.543701" x2="933.578" y2="845.457" stroke="#F4EFF6" stroke-opacity="0.04"/>
<line x1="962.966" y1="0.543701" x2="962.966" y2="845.457" stroke="#F4EFF6" stroke-opacity="0.04"/>
<line x1="992.354" y1="0.543701" x2="992.354" y2="845.457" stroke="#F4EFF6" stroke-opacity="0.04"/>
<line x1="1021.74" y1="0.543701" x2="1021.74" y2="845.457" stroke="#F4EFF6" stroke-opacity="0.04"/>
<line x1="1051.13" y1="0.543701" x2="1051.13" y2="845.457" stroke="#F4EFF6" stroke-opacity="0.04"/>
<line x1="1080.52" y1="0.543701" x2="1080.52" y2="845.457" stroke="#F4EFF6" stroke-opacity="0.04"/>
<line x1="1109.91" y1="0.543701" x2="1109.91" y2="845.457" stroke="#F4EFF6" stroke-opacity="0.04"/>
<line x1="1139.3" y1="0.543701" x2="1139.3" y2="845.457" stroke="#F4EFF6" stroke-opacity="0.04"/>
<line x1="1159" y1="26.7583" y2="26.7583" stroke="#F4EFF6" stroke-opacity="0.04"/>
<line x1="1159" y1="56.1465" y2="56.1465" stroke="#F4EFF6" stroke-opacity="0.04"/>
<line x1="1159" y1="85.5349" y2="85.5349" stroke="#F4EFF6" stroke-opacity="0.04"/>
<line x1="1159" y1="114.923" y2="114.923" stroke="#F4EFF6" stroke-opacity="0.04"/>
<line x1="1159" y1="144.311" y2="144.311" stroke="#F4EFF6" stroke-opacity="0.04"/>
<line x1="1159" y1="173.7" y2="173.7" stroke="#F4EFF6" stroke-opacity="0.04"/>
<line x1="1159" y1="203.088" y2="203.088" stroke="#F4EFF6" stroke-opacity="0.04"/>
<line x1="1159" y1="232.476" y2="232.476" stroke="#F4EFF6" stroke-opacity="0.04"/>
<line x1="1159" y1="261.865" y2="261.865" stroke="#F4EFF6" stroke-opacity="0.04"/>
<line x1="1159" y1="291.253" y2="291.253" stroke="#F4EFF6" stroke-opacity="0.04"/>
<line x1="1159" y1="320.641" y2="320.641" stroke="#F4EFF6" stroke-opacity="0.04"/>
<line x1="1159" y1="350.029" y2="350.029" stroke="#F4EFF6" stroke-opacity="0.04"/>
<line x1="1159" y1="379.418" y2="379.418" stroke="#F4EFF6" stroke-opacity="0.04"/>
<line x1="1159" y1="408.806" y2="408.806" stroke="#F4EFF6" stroke-opacity="0.04"/>
<line x1="1159" y1="438.194" y2="438.194" stroke="#F4EFF6" stroke-opacity="0.04"/>
<line x1="1159" y1="467.582" y2="467.582" stroke="#F4EFF6" stroke-opacity="0.04"/>
<line x1="1159" y1="496.971" y2="496.971" stroke="#F4EFF6" stroke-opacity="0.04"/>
<line x1="1159" y1="526.359" y2="526.359" stroke="#F4EFF6" stroke-opacity="0.04"/>
<line x1="1159" y1="555.747" y2="555.747" stroke="#F4EFF6" stroke-opacity="0.04"/>
<line x1="1159" y1="585.135" y2="585.135" stroke="#F4EFF6" stroke-opacity="0.04"/>
<line x1="1159" y1="614.524" y2="614.524" stroke="#F4EFF6" stroke-opacity="0.04"/>
<line x1="1159" y1="643.912" y2="643.912" stroke="#F4EFF6" stroke-opacity="0.04"/>
<line x1="1159" y1="673.3" y2="673.3" stroke="#F4EFF6" stroke-opacity="0.04"/>
<line x1="1159" y1="702.689" y2="702.689" stroke="#F4EFF6" stroke-opacity="0.04"/>
<line x1="1159" y1="732.077" y2="732.077" stroke="#F4EFF6" stroke-opacity="0.04"/>
<line x1="1159" y1="761.465" y2="761.465" stroke="#F4EFF6" stroke-opacity="0.04"/>
<line x1="1159" y1="790.853" y2="790.853" stroke="#F4EFF6" stroke-opacity="0.04"/>
<line x1="1159" y1="820.242" y2="820.242" stroke="#F4EFF6" stroke-opacity="0.04"/>
</svg>
